<svg data-v-423bf9ae="" xmlns="http://www.w3.org/2000/svg" viewBox="0 0 364 90" class="iconLeft"><!----><!----><!----><g data-v-423bf9ae="" id="bc3f6a90-74d7-4210-b3c3-1e1df308cccd" fill="#2F190E" transform="matrix(5.494505456117445,0,0,5.494505456117445,106.025619137255,-0.3846133462003607)"><path d="M6.12 13.55L8.36 13.55L4.73 7.78L8.06 3.30L6.27 3.30L2.86 7.88L2.86 3.30L0.73 3.30C0.74 3.37 0.92 4.13 0.92 4.16L0.92 13.55L2.86 13.55L2.86 8.36ZM16.73 12.68L15.85 11.35C15.16 12.01 14.43 12.40 13.45 12.40C11.41 12.40 10.53 10.02 10.53 8.32C10.53 6.43 11.24 4.47 13.43 4.47C14.20 4.47 15.15 4.80 15.67 5.39L16.67 4.10C15.89 3.40 14.36 3.11 13.36 3.11C10.29 3.11 8.44 5.39 8.44 8.36C8.44 11.44 10.09 13.72 13.34 13.72C14.70 13.72 15.61 13.38 16.73 12.68ZM23.02 13.55L25.26 13.55L21.63 7.78L24.96 3.30L23.17 3.30L19.75 7.88L19.75 3.30L17.63 3.30C17.64 3.37 17.82 4.13 17.82 4.16L17.82 13.55L19.75 13.55L19.75 8.36ZM32.20 10.07C32.20 8.05 30.93 6.41 28.81 6.41C26.73 6.41 25.42 8.06 25.42 10.07C25.42 12.08 26.70 13.72 28.81 13.72C30.93 13.72 32.20 12.08 32.20 10.07ZM30.35 10.08C30.35 11.10 30.13 12.60 28.81 12.60C27.54 12.60 27.27 11.06 27.27 10.08C27.27 9.10 27.54 7.56 28.81 7.56C30.13 7.56 30.35 9.06 30.35 10.08ZM38.08 13.68L39.77 13.51C39.51 13.02 39.42 12.10 39.42 11.56L39.42 2.80L37.53 2.80L37.74 3.56L37.74 6.02C37.74 6.45 37.74 6.50 37.76 6.87C37.38 6.57 36.69 6.43 36.20 6.43C34.05 6.43 32.96 8.11 32.96 10.12C32.96 11.91 33.95 13.72 35.94 13.72C36.61 13.72 37.48 13.41 37.87 12.84C37.93 13.15 37.98 13.41 38.08 13.68ZM37.74 9.46L37.74 11.75C37.46 12.17 36.92 12.47 36.41 12.47C35.17 12.47 34.79 11.06 34.79 10.05C34.79 9.09 35.13 7.62 36.36 7.62C37.42 7.62 37.74 8.54 37.74 9.46ZM46.90 9.44C46.90 7.62 45.86 6.40 44.00 6.40C41.90 6.40 40.74 8.16 40.74 10.12C40.74 12.28 42.06 13.71 44.24 13.71C45.01 13.71 46.10 13.48 46.73 12.96L46.02 11.84C45.60 12.26 44.91 12.59 44.32 12.59C43.09 12.59 42.52 11.34 42.52 10.28L46.19 10.28C46.75 10.28 46.90 9.93 46.90 9.44ZM45.15 8.86C45.15 9.04 45.12 9.17 44.91 9.17L42.56 9.17C42.60 8.44 43.23 7.55 44.02 7.55C44.79 7.55 45.15 8.15 45.15 8.86Z"></path></g><defs data-v-423bf9ae=""><linearGradient data-v-423bf9ae="" gradientTransform="rotate(25)" id="3155c25d-9973-45a1-a014-c37321b49a6d" x1="0%" y1="0%" x2="100%" y2="0%"><stop data-v-423bf9ae="" offset="0%" style="stop-color: rgb(169, 37, 128); stop-opacity: 1;"></stop><stop data-v-423bf9ae="" offset="100%" style="stop-color: rgb(247, 188, 0); stop-opacity: 1;"></stop></linearGradient></defs><g data-v-423bf9ae="" id="95a63950-c42a-49a8-9956-1feb808de3c2" transform="matrix(3.215433890782457,0,0,3.215433890782457,-5.44195884052214,-6.430869366166711)" stroke="none" fill="url(#3155c25d-9973-45a1-a014-c37321b49a6d)"><path d="M29.64 14.22c-2.49-2.07-4.53-4.09-5.67-5.61-.1-1.37-.43-6.12-.43-6.12-.02-.33-.28-.49-.54-.49-1.51 0-2.25 1.06-5 .98-1.15-.03-3.62-1-6 0 1.34 0 2.84.47 4.5 1.24 1.12.52 3.54 1.27 5.76 1.06l-.24 3.34c-3.8 5.32-6.61 7.72-9.15 9.62-.9-1.07-1.75-2.18-2.56-3.33a.985.985 0 00-.79-.42c-.33-.03-.62.13-.81.38-1.29 1.64-3.56 3.9-6.37 6.37-.42.36-.46 1-.09 1.41.36.41.99.46 1.41.09 1.45-1.27 3.94-3.54 5.78-5.63 3.44 4.63 7.48 8.58 12.96 12.68.18.13.39.2.6.2.3 0 .6-.14.8-.4.14-.18.19-.4.18-.61 0 0 .01 0 .02.01 0-2.75-2.43-5.85-3.87-8.9-1.07-2.27-.69-4.98.92-6.92.64-.77 1.3-1.61 1.99-2.54 1.28 1.5 3.14 3.31 5.32 5.12.19.15.41.23.64.23.29 0 .57-.12.77-.36.35-.43.29-1.06-.13-1.41z"></path></g><!----></svg>